PathFileType	4	(X/Y/Z)	Walk4.trc
DataRate	CameraRate	NumFrames	NumMarkers	Units	OrigDataRate	OrigDataStartFrame	OrigNumFrames
200.000000	200.000000	9	61	mm	200.000000	376	476
Frame#	Times		LFHD		RFHD		CLAV		LASI		RASI		RACR1		RUA1		RWRU		RCAR		LACR1		LUA1		LWRU		LCAR		RTH3		RTB1		LTH1		LTH2		LTH4		LLFC		LTB1		LTB2		LTB4		LTH3		LFA1		RTH2		LToe		LTB3		STRN		RTB4		LBHD		RWRR		RTB3		RMT5		RFA1		RMFC		RToe		RTH4		RTH1		RLFC		RMT1		RTB2		LElbow		RMMAL		LWRR		LMFC		T10		RElbow		LPSI		LMT1		RBack		LCAL		RBHD		LMMAL		RPSI		RElbowM		RLMAL		RCAL		C7		LMT5		LElbowM		LLMAL
			X1	Y1	Z1	X2	Y2	Z2	X3	Y3	Z3	X4	Y4	Z4	X5	Y5	Z5	X6	Y6	Z6	X7	Y7	Z7	X8	Y8	Z8	X9	Y9	Z9	X10	Y10	Z10	X11	Y11	Z11	X12	Y12	Z12	X13	Y13	Z13	X14	Y14	Z14	X15	Y15	Z15	X16	Y16	Z16	X17	Y17	Z17	X18	Y18	Z18	X19	Y19	Z19	X20	Y20	Z20	X21	Y21	Z21	X22	Y22	Z22	X23	Y23	Z23	X24	Y24	Z24	X25	Y25	Z25	X26	Y26	Z26	X27	Y27	Z27	X28	Y28	Z28	X29	Y29	Z29	X30	Y30	Z30	X31	Y31	Z31	X32	Y32	Z32	X33	Y33	Z33	X34	Y34	Z34	X35	Y35	Z35	X36	Y36	Z36	X37	Y37	Z37	X38	Y38	Z38	X39	Y39	Z39	X40	Y40	Z40	X41	Y41	Z41	X42	Y42	Z42	X43	Y43	Z43	X44	Y44	Z44	X45	Y45	Z45	X46	Y46	Z46	X47	Y47	Z47	X48	Y48	Z48	X49	Y49	Z49	X50	Y50	Z50	X51	Y51	Z51	X52	Y52	Z52	X53	Y53	Z53	X54	Y54	Z54	X55	Y55	Z55	X56	Y56	Z56	X57	Y57	Z57	X58	Y58	Z58	X59	Y59	Z59	X60	Y60	Z60	X61	Y61	Z61

376	1.88	945.23	1587.5	-40.967	943.99	1591.9	58.535	921.34	1317	12.646	913.71	902.97	-89.235	903.95	916.09	160.4	859.21	1352.8	181.27	870.9	1184.9	238.65	1084.4	863.91	229.94	1114.7	797.32	271.32	832.85	1358.9	-136.38	773.75	1196.1	-191.44	662.89	801.03	-215.24	598.1	752.68	-229.74	763.68	593.26	186.13	696.27	342.82	119.75	898.53	735.21	-161.51	977.08	677.53	-126.37	925.53	653.91	-148.61	1004.8	451.82	-103.9	1077.5	378.06	-42.163	1084	287	-96.6	1099.3	294.44	-37.816	953.36	574.41	-131.61	660.07	928.5	-217.78	842.04	662.14	183.41	1310.3	130.59	-40.308	1126.2	214.16	-32.081	949.68	1183.7	18.306	661.43	263.7	108.36	805.31	1517	-62.147	1045.1	826.9	272.24	624.86	186.74	93.16	617.89	26.389	106.21	985.41	929.68	281.49	683.25	459.19	25.546	707.83	23.813	52.862	789.98	670.64	208.23	817.7	749.82	231.93	713.37	449.78	153.86	653.96	32.308	21.543	615.36	279.25	146.07	701.66	1054.9	-192.64	556.03	121.84	19.756	601.42	826.65	-194.75	989.13	434.33	27.621	735.14	1195.7	27.349	883.07	1019.1	276.27	735.06	952.42	-28.627	1261.9	112.48	-10.212	736.93	1284.3	100.97	1081.5	38.489	-23.477	805.6	1529.6	82.457	1126.2	113.23	7.4873	734.07	953.43	71.811	845.37	1007.7	206.95	532.25	104.05	96.87	479.16	96.737	52.469	801.8	1409.9	15.943	1235	85.673	-81.131	699.93	1041.2	-119.57	1116	87.777	-71.038
377	1.885	952.99	1586.6	-41.076	951.79	1590.9	58.429	929.58	1315.9	12.393	922.51	901.7	-89.15	911.96	915.03	160.54	867.32	1351.7	181.01	878.96	1183.9	238.41	1094.1	864.88	229.34	1125	798.36	270.45	840.98	1357.8	-136.63	780.84	1195.7	-191.86	668.47	801.05	-216.41	603.39	752.71	-230.34	770.02	592.91	186.12	700.55	342.59	119.98	907.66	734.26	-161.83	985.75	676.43	-125.83	934.41	652.89	-148.84	1013.3	450.67	-103.54	1086.4	377.65	-41.684	1094	286.58	-96.045	1109.1	294.22	-37.265	962.01	573.31	-131.69	666.12	928.55	-218.61	848.77	661.38	183.6	1322	132.62	-39.037	1136.9	214.22	-31.397	958.05	1182.7	18.132	664.71	263.9	108.69	813.18	1515.9	-62.245	1055	827.25	271.34	627.25	187.36	93.574	618.11	26.49	106.3	994.38	929.46	280.97	689.37	459.02	25.603	707.76	23.837	52.77	796.75	670.17	208.24	824.77	749.29	231.79	718.86	449.52	153.98	654.01	32.251	21.587	618.84	280.07	146.33	708.28	1054.7	-193.19	557.52	123.27	20.29	607.16	826.84	-195.6	996.78	432.87	27.853	743.5	1194.5	26.998	891.27	1018.1	275.98	743.72	951.51	-29.66	1273.8	113.73	-9.3615	745.15	1283.1	100.65	1094.1	37.968	-22.599	813.52	1528.3	82.371	1137.9	113.33	8.3036	742.43	952.37	70.767	853.56	1006.5	206.64	533.61	105.81	97.417	480.39	99.273	53.112	809.91	1408.8	15.703	1247.3	86.64	-80.041	706.75	1040.8	-120.18	1128.1	87.66	-70.22
378	1.89	960.76	1585.7	-41.19	959.6	1589.9	58.319	937.85	1314.9	12.102	931.32	900.43	-89.084	920.06	913.95	160.65	875.46	1350.6	180.71	887.03	1182.8	238.15	1103.6	865.7	228.83	1135	799.23	269.66	849.12	1356.8	-136.9	788.04	1195.2	-192.31	674.38	800.96	-217.6	609.08	752.59	-231.06	776.6	592.48	186.11	705.03	342.3	120.24	916.87	733.38	-162.1	994.53	675.47	-125.26	943.4	651.96	-148.97	1021.8	449.58	-103.13	1095.2	377.05	-41.164	1103.5	285.95	-95.41	1118.5	293.78	-36.645	970.82	572.33	-131.63	672.44	928.49	-219.55	855.7	660.57	183.71	1332.6	133.83	-37.707	1146.9	213.99	-30.617	966.45	1181.7	17.928	668.15	264.07	109.04	821.07	1514.7	-62.373	1064.7	827.49	270.49	629.76	187.97	94.031	618.37	26.595	106.42	1003.2	929.15	280.47	695.65	458.79	25.708	707.65	23.862	52.664	803.72	669.64	208.22	832.02	748.71	231.62	724.59	449.18	154.1	654.03	32.194	21.64	622.53	280.87	146.64	715.08	1054.4	-193.86	559.11	124.74	20.9	613.17	826.91	-196.62	1004.6	431.56	28.113	751.89	1193.2	26.633	899.43	1017	275.68	752.44	950.62	-30.655	1284.6	114.29	-8.431	753.39	1281.9	100.31	1105.4	37.359	-21.609	821.44	1527	82.255	1148.5	113.17	9.2444	750.87	951.34	69.755	861.75	1005.4	206.28	535.09	107.62	98.05	481.73	101.92	53.849	818.03	1407.6	15.432	1258.5	87.036	-78.854	713.67	1040.3	-120.91	1139.1	87.314	-69.276
379	1.895	968.55	1584.7	-41.31	967.4	1588.9	58.203	946.14	1313.8	11.775	940.14	899.17	-89.044	928.26	912.86	160.71	883.62	1349.5	180.38	895.1	1181.8	237.86	1113	866.38	228.41	1144.8	799.91	268.97	857.26	1355.7	-137.2	795.36	1194.7	-192.8	680.62	800.77	-218.83	615.17	752.33	-231.91	783.42	591.98	186.09	709.72	341.93	120.52	926.14	732.57	-162.33	1003.4	674.64	-124.66	952.49	651.12	-148.99	1030.4	448.55	-102.69	1103.9	376.27	-40.603	1112.6	285.12	-94.695	1127.5	293.09	-35.955	979.78	571.48	-131.44	679.05	928.31	-220.6	862.83	659.72	183.76	1342.3	134.18	-36.314	1156.2	213.46	-29.742	974.89	1180.8	17.687	671.77	264.21	109.42	828.97	1513.6	-62.531	1074.3	827.59	269.7	632.4	188.57	94.533	618.65	26.703	106.56	1012	928.77	280.01	702.08	458.5	25.86	707.52	23.886	52.544	810.9	669.04	208.18	839.47	748.07	231.4	730.57	448.75	154.24	654.04	32.138	21.703	626.42	281.65	147	722.07	1054	-194.63	560.8	126.25	21.588	619.46	826.85	-197.82	1012.5	430.4	28.403	760.33	1192	26.253	907.57	1015.9	275.34	761.23	949.75	-31.604	1294.3	114.13	-7.4046	761.67	1280.6	99.925	1115.5	36.644	-20.519	829.36	1525.8	82.109	1158.2	112.74	10.307	759.39	950.34	68.785	869.94	1004.3	205.88	536.7	109.48	98.768	483.19	104.68	54.68	826.16	1406.5	15.129	1268.4	86.833	-77.573	720.7	1039.7	-121.74	1149	86.715	-68.209
380	1.9	976.36	1583.8	-41.436	975.21	1587.8	58.081	954.44	1312.8	11.411	948.97	897.94	-89.034	936.55	911.75	160.74	891.8	1348.4	180.01	903.17	1180.7	237.54	1122.3	866.89	228.08	1154.4	800.4	268.37	865.4	1354.6	-137.52	802.79	1194.1	-193.32	687.19	800.46	-220.09	621.63	751.94	-232.9	790.49	591.38	186.07	714.63	341.5	120.82	935.45	731.82	-162.5	1012.4	673.93	-124.05	961.67	650.35	-148.9	1039.2	447.57	-102.22	1112.4	375.3	-39.998	1121.2	284.09	-93.898	1136.1	292.16	-35.194	988.87	570.73	-131.13	685.93	928.01	-221.75	870.17	658.82	183.75	1350.9	133.65	-34.852	1164.9	212.61	-28.771	983.36	1179.8	17.406	675.56	264.29	109.82	836.89	1512.4	-62.721	1083.7	827.57	268.96	635.21	189.16	95.081	618.96	26.816	106.71	1020.7	928.29	279.59	708.69	458.15	26.06	707.35	23.907	52.408	818.3	668.37	208.1	847.1	747.36	231.15	736.82	448.24	154.38	654.02	32.084	21.774	630.53	282.41	147.42	729.25	1053.5	-195.51	562.62	127.79	22.353	626.04	826.67	-199.17	1020.6	429.4	28.727	768.82	1190.7	25.855	915.67	1014.8	274.98	770.08	948.89	-32.502	1303	113.26	-6.2632	769.97	1279.4	99.51	1124.3	35.816	-19.347	837.28	1524.5	81.932	1166.8	112.01	11.485	767.98	949.35	67.867	878.13	1003.2	205.43	538.45	111.4	99.571	484.79	107.56	55.606	834.29	1405.3	14.792	1277.3	86.023	-76.2	727.85	1039.1	-122.68	1157.8	85.858	-67.028
381	1.905	984.18	1582.9	-41.57	983.01	1586.8	57.954	962.78	1311.8	11.011	957.82	896.72	-89.06	944.95	910.61	160.72	900.01	1347.3	179.61	911.25	1179.7	237.2	1131.4	867.23	227.85	1163.8	800.7	267.87	873.56	1353.5	-137.88	810.36	1193.4	-193.89	694.09	800.04	-221.38	628.48	751.41	-234.03	797.8	590.69	186.04	719.76	340.98	121.16	944.8	731.11	-162.62	1021.5	673.32	-123.44	970.92	649.67	-148.73	1048	446.63	-101.72	1120.8	374.15	-39.346	1129.4	282.85	-93.023	1144.3	290.99	-34.361	998.08	570.09	-130.7	693.1	927.6	-223	877.71	657.86	183.68	1358.6	132.24	-33.31	1172.9	211.45	-27.709	991.87	1178.9	17.08	679.56	264.33	110.26	844.83	1511.3	-62.942	1092.9	827.41	268.28	638.17	189.75	95.678	619.3	26.936	106.89	1029.2	927.73	279.19	715.47	457.73	26.307	707.15	23.926	52.259	825.9	667.62	208	854.93	746.59	230.86	743.36	447.63	154.54	654	32.036	21.853	634.88	283.14	147.9	736.62	1052.9	-196.49	564.57	129.37	23.197	632.9	826.36	-200.68	1028.8	428.54	29.088	777.34	1189.5	25.438	923.75	1013.7	274.6	778.97	948.04	-33.34	1310.8	111.69	-4.9885	778.3	1278.1	99.059	1132	34.883	-18.115	845.21	1523.1	81.724	1174.4	110.99	12.769	776.65	948.39	67.009	886.32	1002	204.96	540.35	113.38	100.46	486.57	110.56	56.625	842.43	1404.1	14.42	1285	84.614	-74.74	735.11	1038.4	-123.71	1165.6	84.747	-65.747
382	1.91	992.02	1582.1	-41.712	990.82	1585.8	57.819	971.14	1310.7	10.576	966.68	895.55	-89.124	953.44	909.46	160.64	908.24	1346.2	179.17	919.35	1178.6	236.82	1140.4	867.4	227.7	1173	800.8	267.47	881.72	1352.4	-138.26	818.07	1192.7	-194.49	701.31	799.52	-222.71	635.69	750.77	-235.29	805.36	589.9	186.01	725.15	340.39	121.52	954.15	730.44	-162.68	1030.6	672.8	-122.85	980.22	649.03	-148.46	1056.9	445.75	-101.19	1129	372.84	-38.642	1137.3	281.42	-92.07	1152.1	289.6	-33.454	1007.4	569.52	-130.18	700.55	927.08	-224.33	885.46	656.86	183.56	1365.4	129.98	-31.68	1180.3	210.01	-26.558	1000.4	1177.9	16.708	683.77	264.33	110.73	852.78	1510.2	-63.195	1101.9	827.11	267.66	641.32	190.32	96.324	619.66	27.066	107.08	1037.7	927.09	278.83	722.46	457.24	26.6	706.92	23.939	52.096	833.71	666.79	207.87	862.93	745.75	230.53	750.2	446.91	154.72	653.95	31.998	21.939	639.48	283.84	148.43	744.18	1052.3	-197.57	566.68	131	24.117	640.05	825.93	-202.32	1037.2	427.83	29.491	785.91	1188.2	25	931.81	1012.5	274.2	787.91	947.2	-34.115	1317.6	109.45	-3.5672	786.67	1276.8	98.573	1138.5	33.863	-16.851	853.13	1521.8	81.484	1181.2	109.69	14.144	785.38	947.46	66.219	894.51	1000.9	204.45	542.42	115.42	101.42	488.55	113.69	57.734	850.58	1403	14.012	1291.8	82.631	-73.201	742.51	1037.7	-124.83	1172.4	83.402	-64.382
383	1.915	999.87	1581.2	-41.863	998.63	1584.8	57.677	979.52	1309.7	10.108	975.56	894.41	-89.231	962.01	908.3	160.51	916.49	1345.1	178.69	927.46	1177.6	236.4	1149.2	867.39	227.63	1182	800.69	267.16	889.91	1351.3	-138.68	825.92	1192	-195.14	708.85	798.89	-224.08	643.26	750.02	-236.69	813.18	589	185.98	730.79	339.7	121.92	963.5	729.8	-162.7	1039.8	672.35	-122.3	989.54	648.45	-148.13	1065.8	444.91	-100.63	1137.2	371.37	-37.883	1144.7	279.83	-91.043	1159.6	288.02	-32.473	1016.8	569.03	-129.58	708.26	926.46	-225.75	893.42	655.8	183.4	1371.4	126.91	-29.953	1187.2	208.3	-25.324	1009	1177	16.289	688.21	264.27	111.23	860.74	1509.1	-63.48	1110.7	826.67	267.11	644.68	190.89	97.023	620.05	27.211	107.29	1046.1	926.37	278.51	729.66	456.66	26.939	706.64	23.946	51.921	841.73	665.88	207.71	871.1	744.84	230.18	757.36	446.08	154.91	653.9	31.975	22.032	644.35	284.51	149.02	751.93	1051.6	-198.75	568.97	132.66	25.112	647.48	825.37	-204.08	1045.8	427.25	29.934	794.52	1186.9	24.539	939.85	1011.4	273.78	796.87	946.38	-34.82	1323.5	106.59	-1.9932	795.05	1275.5	98.051	1144	32.789	-15.583	861.06	1520.5	81.212	1187.1	108.13	15.594	794.17	946.54	65.504	902.7	999.77	203.92	544.68	117.52	102.46	490.75	116.94	58.929	858.74	1401.8	13.565	1297.6	80.119	-71.593	750.04	1036.8	-126.03	1178.3	81.858	-62.956
384	1.92	1007.7	1580.4	-42.025	1006.4	1583.8	57.526	987.94	1308.7	9.6083	984.45	893.31	-89.381	970.68	907.12	160.33	924.76	1344	178.19	935.59	1176.5	235.95	1158	867.21	227.64	1190.7	800.38	266.96	898.12	1350.2	-139.13	833.92	1191.1	-195.83	716.7	798.16	-225.5	651.19	749.16	-238.23	821.25	588	185.94	736.72	338.91	122.35	972.81	729.18	-162.68	1049	671.95	-121.8	998.87	647.9	-147.74	1074.8	444.1	-100.05	1145.2	369.79	-37.062	1151.9	278.11	-89.947	1166.8	286.27	-31.42	1026.2	568.58	-128.91	716.25	925.73	-227.25	901.6	654.7	183.19	1376.7	123.09	-28.124	1193.5	206.38	-24.014	1017.6	1176.1	15.822	692.9	264.16	111.77	868.73	1508	-63.799	1119.3	826.1	266.62	648.25	191.45	97.775	620.47	27.379	107.51	1054.3	925.57	278.22	737.11	455.99	27.323	706.32	23.945	51.736	849.96	664.88	207.53	879.44	743.86	229.79	764.86	445.14	155.13	653.85	31.974	22.132	649.51	285.16	149.65	759.87	1050.8	-200.02	571.46	134.38	26.179	655.21	824.7	-205.96	1054.4	426.8	30.418	803.16	1185.7	24.053	947.87	1010.3	273.33	805.85	945.56	-35.451	1328.6	103.18	-0.26769	803.47	1274.2	97.494	1148.6	31.701	-14.337	868.99	1519.2	80.908	1192.3	106.35	17.098	803.01	945.64	64.868	910.88	998.66	203.37	547.15	119.7	103.58	493.21	120.34	60.204	866.91	1400.6	13.078	1302.5	77.136	-69.929	757.71	1035.9	-127.32	1183.5	80.156	-61.49
